<?xml version="1.0" standalone="no"?>
<!DOCTYPE svg PUBLIC "-//W3C//DTD SVG 20010904//EN"
 "http://www.w3.org/TR/2001/REC-SVG-20010904/DTD/svg10.dtd">
<svg version="1.0" xmlns="http://www.w3.org/2000/svg"
 width="500.000000pt" height="500.000000pt" viewBox="0 0 500.000000 500.000000"
 preserveAspectRatio="xMidYMid meet">

<g transform="translate(0.000000,500.000000) scale(0.100000,-0.100000)"
fill="#000000" stroke="none">
<path d="M0 2500 l0 -2500 2500 0 2500 0 0 2500 0 2500 -2500 0 -2500 0 0
-2500z m2410 2050 c0 -5 -4 -10 -10 -10 -5 0 -10 5 -10 10 0 6 5 10 10 10 6 0
10 -4 10 -10z m148 -131 c-2 -6 -8 -10 -13 -10 -5 0 -11 4 -13 10 -2 6 4 11
13 11 9 0 15 -5 13 -11z m-348 -24 c0 -8 -7 -15 -15 -15 -16 0 -20 12 -8 23
11 12 23 8 23 -8z m0 -85 c0 -5 -4 -10 -10 -10 -5 0 -10 5 -10 10 0 6 5 10 10
10 6 0 10 -4 10 -10z m300 -26 c0 -18 -36 -18 -43 0 -7 19 0 25 24 19 10 -3
19 -12 19 -19z m930 16 c0 -5 -4 -10 -9 -10 -6 0 -13 5 -16 10 -3 6 1 10 9 10
9 0 16 -4 16 -10z m-1084 -25 c16 -13 17 -16 4 -25 -8 -5 -35 -9 -60 -8 -36 1
-39 2 -12 5 24 3 32 9 32 24 0 23 10 24 36 4z m279 4 c4 -6 5 -12 2 -15 -7 -7
-37 7 -37 17 0 13 27 11 35 -2z m555 1 c0 -5 -7 -10 -15 -10 -8 0 -15 5 -15
10 0 6 7 10 15 10 8 0 15 -4 15 -10z m-697 -27 c-13 -2 -35 -2 -50 0 -16 2 -5
4 22 4 28 0 40 -2 28 -4z m110 -10 c-13 -2 -33 -2 -45 0 -13 2 -3 4 22 4 25 0
35 -2 23 -4z m-380 -10 c-7 -2 -19 -2 -25 0 -7 3 -2 5 12 5 14 0 19 -2 13 -5z
m460 0 c-7 -2 -21 -2 -30 0 -10 3 -4 5 12 5 17 0 24 -2 18 -5z m-526 -9 c-3
-3 -12 -4 -19 -1 -8 3 -5 6 6 6 11 1 17 -2 13 -5z m576 -1 c-7 -2 -19 -2 -25
0 -7 3 -2 5 12 5 14 0 19 -2 13 -5z m-1331 -25 c-7 -7 -12 -8 -12 -2 0 14 12
26 19 19 2 -3 -1 -11 -7 -17z m715 16 c-3 -3 -12 -4 -19 -1 -8 3 -5 6 6 6 11
1 17 -2 13 -5z m267 -15 c-3 -5 -10 -7 -15 -3 -5 3 -7 10 -3 15 3 5 10 7 15 3
5 -3 7 -10 3 -15z m393 15 c-3 -3 -12 -4 -19 -1 -8 3 -5 6 6 6 11 1 17 -2 13
-5z m359 -21 c-10 -10 -19 5 -10 18 6 11 8 11 12 0 2 -7 1 -15 -2 -18z m-1059
11 c-3 -3 -12 -4 -19 -1 -8 3 -5 6 6 6 11 1 17 -2 13 -5z m-52 -14 c-11 -5
-27 -9 -35 -9 -9 0 -8 4 5 9 11 5 27 9 35 9 9 0 8 -4 -5 -9z m585 -20 c0 -10
8 -21 18 -23 9 -3 0 -5 -21 -6 -41 -1 -58 19 -37 44 15 18 40 8 40 -15z m247
24 c-3 -3 -12 -4 -19 -1 -8 3 -5 6 6 6 11 1 17 -2 13 -5z m-1252 -13 c7 -12
-12 -24 -25 -16 -11 7 -4 25 10 25 5 0 11 -4 15 -9z m695 -1 c-36 -3 -72 -10
-81 -14 -11 -5 -19 -2 -22 8 -6 14 6 16 81 14 l87 -1 -65 -7z m590 3 c-1 -18
-18 -35 -24 -24 -4 6 -4 16 -1 21 7 12 25 13 25 3z m-737 -10 c-7 -2 -21 -2
-30 0 -10 3 -4 5 12 5 17 0 24 -2 18 -5z m314 1 c-3 -3 -12 -4 -19 -1 -8 3 -5
6 6 6 11 1 17 -2 13 -5z m-390 -10 c-3 -3 -12 -4 -19 -1 -8 3 -5 6 6 6 11 1
17 -2 13 -5z m713 -20 c0 -16 -26 -19 -35 -4 -3 6 -4 14 0 20 8 13 35 1 35
-16z m-890 6 c-8 -5 -19 -10 -25 -10 -5 0 -3 5 5 10 8 5 20 10 25 10 6 0 3 -5
-5 -10z m117 -5 c0 -18 -19 -15 -25 3 -2 7 3 12 11 12 7 0 14 -7 14 -15z m973
5 c8 -5 11 -10 5 -10 -5 0 -17 5 -25 10 -8 5 -10 10 -5 10 6 0 17 -5 25 -10z
m-1148 -23 c-12 -7 -19 -17 -15 -22 4 -4 2 -5 -6 0 -7 4 -16 3 -20 -2 -3 -5
-36 -23 -72 -40 -37 -17 -93 -48 -125 -69 -33 -21 -62 -37 -66 -36 -5 1 -8 -7
-8 -17 0 -21 -22 -33 -44 -25 -17 6 -10 34 8 34 24 1 105 60 100 74 -6 15 36
31 46 17 8 -11 75 32 75 49 0 10 11 15 35 15 19 1 49 8 65 17 17 10 35 17 40
17 6 0 0 -5 -13 -12z m835 7 c-3 -3 -12 -4 -19 -1 -8 3 -5 6 6 6 11 1 17 -2
13 -5z m433 -39 c39 -19 70 -38 70 -40 0 -3 -19 4 -42 16 -28 14 -43 18 -46
10 -4 -13 -42 -15 -42 -2 0 6 5 13 11 17 8 4 3 12 -12 20 -50 28 -5 12 61 -21z
m380 20 c0 -8 -7 -15 -15 -15 -8 0 -15 7 -15 15 0 8 7 15 15 15 8 0 15 -7 15
-15z m-252 -15 c10 -17 10 -21 -3 -27 -21 -8 -37 9 -29 30 8 22 16 21 32 -3z
m-398 -20 c8 -5 11 -10 5 -10 -5 0 -17 5 -25 10 -8 5 -10 10 -5 10 6 0 17 -5
25 -10z m-890 -16 c0 -9 -7 -14 -17 -12 -25 5 -28 28 -4 28 12 0 21 -6 21 -16z
m180 -5 c0 -24 -23 -21 -28 4 -2 10 3 17 12 17 10 0 16 -9 16 -21z m788 0 c12
0 22 -5 22 -13 0 -7 18 -21 40 -31 23 -10 43 -22 46 -27 4 -5 -17 2 -45 16
-28 15 -52 26 -53 25 -2 -1 -19 8 -38 21 -19 12 -26 19 -15 15 11 -4 30 -7 43
-6z m-163 -23 c141 -26 179 -37 164 -48 -9 -6 -3 -7 21 -3 28 5 32 4 20 -5
-12 -10 -11 -11 8 -7 12 3 20 2 17 -3 -3 -4 7 -11 22 -15 14 -3 35 -12 45 -19
17 -12 17 -14 3 -20 -9 -3 -13 -2 -10 3 7 12 -31 24 -46 15 -8 -5 -9 -3 -4 6
6 10 3 12 -13 8 -12 -4 -20 -2 -17 2 7 11 -51 23 -66 14 -8 -5 -9 -3 -4 6 6
10 1 12 -18 8 -16 -3 -24 -1 -20 5 4 6 -5 8 -26 4 -22 -5 -30 -3 -25 5 5 8 -4
9 -32 4 -29 -5 -35 -4 -24 4 11 8 0 10 -45 6 -38 -4 -51 -2 -35 3 15 5 -36 7
-126 7 -84 -1 -150 -4 -148 -7 2 -3 -25 -9 -60 -12 -77 -7 -239 -48 -321 -80
-465 -184 -792 -570 -897 -1060 -29 -135 -32 -417 -5 -548 26 -132 46 -189 64
-189 12 0 13 -3 4 -14 -10 -12 -6 -31 19 -93 63 -157 163 -313 285 -441 73
-78 217 -202 233 -202 4 0 20 24 35 54 68 130 99 123 75 -17 -19 -105 -21 -99
63 -142 l46 -24 22 82 c29 108 56 167 77 167 26 0 12 -61 -36 -155 -22 -44
-40 -85 -40 -91 0 -6 11 -16 24 -22 23 -10 24 -9 46 76 26 107 65 195 82 189
22 -7 10 -64 -31 -145 -48 -96 -57 -131 -36 -137 8 -3 23 -8 33 -11 9 -4 37
-6 61 -4 36 1 43 -1 38 -14 -4 -11 1 -17 16 -21 47 -10 60 -10 64 2 3 7 -9 13
-29 16 -18 2 10 4 62 4 52 0 86 -2 75 -4 -19 -5 -35 -20 -35 -35 0 -5 45 -8
100 -8 64 0 100 4 100 11 0 5 5 7 11 4 6 -4 8 -13 5 -21 -6 -16 36 -18 114 -5
l45 7 -35 12 c-32 12 -100 72 -81 72 5 0 11 14 15 31 10 50 127 158 225 207
45 23 98 44 117 48 48 9 84 -9 84 -41 0 -31 -17 -33 -22 -2 -3 19 -9 22 -46
21 -85 -2 -285 -132 -327 -215 -19 -36 -19 -39 3 -40 16 -1 16 -2 0 -6 -15 -4
-13 -9 13 -34 25 -25 37 -29 62 -25 24 5 27 4 12 -3 -19 -8 -18 -9 8 -16 66
-17 349 73 496 157 61 36 76 49 86 81 14 40 11 45 -14 24 -22 -19 -91 -60 -91
-54 0 2 19 17 43 32 23 15 65 52 94 81 28 30 61 54 71 54 12 0 55 36 107 93
48 50 73 74 55 52 -46 -56 -171 -185 -179 -185 -4 0 -12 -20 -18 -44 l-10 -44
78 60 c76 59 164 145 223 218 15 19 24 28 20 20 -7 -13 -6 -13 10 -1 9 8 15
20 12 28 -3 8 -2 11 4 8 5 -3 16 8 25 25 8 16 12 30 8 30 -5 0 0 5 10 11 9 6
14 15 11 21 -5 7 -2 8 6 3 10 -6 12 -4 7 9 -4 9 -3 15 2 12 4 -3 13 6 20 20
14 33 14 37 -4 31 -19 -8 -26 5 -14 23 8 12 12 12 16 2 7 -18 43 15 43 40 0
10 4 18 9 18 9 0 44 86 44 110 0 8 3 17 7 20 9 7 58 168 65 216 l6 41 -30 -5
c-28 -4 -31 -2 -31 22 0 28 17 34 51 16 16 -9 19 -7 19 11 0 12 2 20 5 17 11
-11 -27 -209 -62 -317 -20 -63 -60 -162 -90 -220 -29 -58 -49 -107 -43 -109
21 -7 9 -31 -19 -37 -19 -4 -38 -20 -55 -45 -23 -35 -24 -40 -9 -48 15 -9 15
-11 0 -27 -13 -13 -21 -14 -31 -6 -19 16 -67 -40 -59 -69 4 -15 1 -20 -16 -20
-12 0 -53 -27 -94 -63 -40 -34 -100 -82 -134 -106 -34 -23 -66 -55 -71 -69
-21 -55 -102 -436 -99 -466 1 -10 -4 -21 -10 -23 -18 -7 -16 25 10 154 l23
113 -26 -25 c-38 -36 -59 -32 -78 16 l-16 40 -23 -30 c-32 -41 -51 -40 -55 4
l-3 34 -53 -40 c-29 -22 -50 -45 -46 -51 3 -5 2 -20 -3 -31 -6 -12 -20 -43
-31 -70 -29 -64 -93 -131 -155 -162 -58 -29 -80 -31 -96 -11 -25 30 49 124
181 232 64 53 68 58 52 75 -9 10 -36 27 -60 38 -39 19 -51 20 -111 11 -38 -5
-118 -10 -179 -10 -98 0 -113 -2 -129 -20 -10 -11 -26 -20 -36 -20 -11 0 -24
9 -31 20 -7 11 -22 20 -33 20 -17 0 -17 2 -5 10 13 9 13 10 0 10 -9 0 -28 -25
-45 -57 -28 -56 -29 -57 -34 -29 -5 26 -7 28 -20 13 -24 -30 -51 -21 -69 24
l-16 40 -23 -30 c-35 -44 -56 -41 -51 8 3 38 -16 72 -32 55 -10 -12 -60 -261
-60 -301 0 -32 -14 -51 -24 -34 -4 5 3 56 14 113 11 57 20 104 20 106 0 1 -7
2 -15 2 -8 0 -15 7 -15 16 0 10 6 13 19 9 16 -5 20 4 33 69 l15 74 -23 11
c-22 10 -24 8 -38 -42 -19 -67 -67 -304 -65 -320 3 -23 -1 -37 -11 -37 -17 0
-11 60 23 216 26 122 30 153 20 163 -22 20 -16 43 10 35 12 -3 20 -4 17 -1 -9
9 -130 67 -130 62 0 -2 21 -16 48 -29 26 -14 43 -25 39 -26 -4 0 -26 9 -48 21
-23 11 -43 18 -46 15 -3 -2 -8 -19 -12 -38 -5 -18 -11 -43 -15 -55 -7 -22 -5
-23 43 -23 71 0 74 -18 4 -22 l-58 -3 -32 -140 c-33 -146 -40 -205 -23 -205 5
0 7 -7 4 -15 -4 -8 -12 -15 -20 -15 -21 0 -18 63 11 197 14 65 28 132 32 150
l5 31 -60 4 -60 3 -50 -90 c-82 -147 -120 -173 -164 -115 -39 53 -39 206 -1
259 29 39 85 63 127 55 53 -9 44 -24 -13 -21 -80 3 -121 -50 -122 -156 -1
-100 40 -173 76 -136 22 22 115 181 115 196 0 10 -18 13 -70 13 -40 0 -70 4
-70 10 0 6 33 10 79 10 l79 0 48 87 c30 55 43 88 35 91 -6 2 -18 10 -26 19 -8
8 -15 12 -15 9 0 -4 -18 3 -40 14 -22 11 -40 23 -40 26 0 2 9 0 21 -6 47 -25
24 0 -57 64 -47 37 -84 70 -81 73 3 3 -21 36 -53 74 -122 147 -244 360 -270
472 -5 24 -15 57 -21 73 -64 167 -85 413 -54 650 9 65 13 124 10 133 -3 8 -1
17 5 21 6 4 28 56 49 116 71 204 173 378 307 524 124 135 249 237 335 273 19
8 56 28 84 46 95 61 295 124 490 156 107 17 311 13 430 -9z m625 -12 c0 -8 -9
-14 -20 -14 -19 0 -28 28 -13 43 9 9 33 -12 33 -29z m-120 -16 c30 -26 31 -27
5 -10 -16 10 -35 18 -40 16 -6 -2 -15 4 -22 15 -18 28 14 17 57 -21z m-1475
-23 c0 -30 -39 -27 -43 3 -3 20 0 23 20 20 15 -2 23 -10 23 -23z m-463 -20 c0
-5 -5 -11 -11 -13 -6 -2 -11 4 -11 13 0 9 5 15 11 13 6 -2 11 -8 11 -13z
m2152 -130 c85 -82 188 -195 179 -195 -3 0 1 -8 8 -17 27 -36 -10 4 -59 63
-43 52 -55 61 -76 57 -28 -6 -31 -1 -16 27 8 15 1 26 -41 64 -49 44 -53 46
-70 30 -20 -18 -49 -12 -49 10 0 8 8 20 18 25 16 9 16 11 -3 24 -47 34 -66 56
-21 25 26 -18 85 -69 130 -113z m-317 68 c38 -27 68 -42 75 -37 7 4 10 4 6 -1
-4 -4 25 -42 66 -84 70 -73 128 -138 150 -171 6 -9 -9 7 -33 35 -84 95 -191
195 -241 223 -27 16 -47 31 -44 35 3 3 -10 13 -30 21 -20 8 -36 20 -36 26 0
13 6 10 87 -47z m-1732 -16 c-125 -100 -259 -243 -332 -353 -20 -30 -38 -54
-40 -54 -5 0 3 14 38 66 16 23 26 44 24 48 -3 3 -2 4 1 2 3 -3 31 26 62 63 74
87 262 262 282 261 3 -1 -13 -15 -35 -33z m-51 2 c-3 -5 -10 -7 -15 -3 -5 3
-7 10 -3 15 3 5 10 7 15 3 5 -3 7 -10 3 -15z m10 -81 c-105 -107 -169 -186
-223 -275 -39 -63 -53 -72 -17 -10 52 88 144 204 235 294 51 51 96 93 99 93 3
0 -39 -46 -94 -102z m186 92 c0 -5 -2 -10 -4 -10 -3 0 -8 5 -11 10 -3 6 -1 10
4 10 6 0 11 -4 11 -10z m1550 6 c0 -2 -7 -7 -16 -10 -8 -3 -12 -2 -9 4 6 10
25 14 25 6z m-1650 -103 c0 -5 -5 -15 -10 -23 -7 -11 -12 -12 -21 -3 -6 6 -8
16 -5 22 8 12 36 15 36 4z m1901 -20 c13 -16 12 -17 -3 -4 -17 13 -22 21 -14
21 2 0 10 -8 17 -17z m33 -21 c3 -5 -1 -9 -9 -9 -8 0 -12 4 -9 9 3 4 7 8 9 8
2 0 6 -4 9 -8z m79 -61 c29 -27 36 -44 12 -35 -8 3 -13 9 -12 13 1 4 -14 22
-33 40 -38 37 -12 22 33 -18z m152 19 c-3 -5 -10 -10 -16 -10 -5 0 -9 5 -9 10
0 6 7 10 16 10 8 0 12 -4 9 -10z m315 -71 c0 -5 -7 -9 -15 -9 -8 0 -15 7 -15
15 0 9 6 12 15 9 8 -4 15 -10 15 -15z m-2650 -5 c0 -8 -4 -12 -10 -9 -5 3 -10
10 -10 16 0 5 5 9 10 9 6 0 10 -7 10 -16z m134 0 c9 -22 8 -24 -9 -18 -8 4
-15 12 -15 20 0 19 16 18 24 -2z m2433 -40 c-9 -9 -28 6 -21 18 4 6 10 6 17
-1 6 -6 8 -13 4 -17z m-247 -14 c0 -4 -9 -10 -20 -13 -19 -5 -28 12 -14 26 8
7 34 -3 34 -13z m-102 -67 c22 -32 47 -74 56 -93 18 -38 14 -32 -56 76 -56 87
-56 99 0 17z m213 -8 l10 -20 -16 20 c-9 11 -21 29 -26 40 l-10 20 16 -20 c9
-11 21 -29 26 -40z m-2446 35 c3 -6 -1 -13 -10 -16 -19 -8 -30 0 -20 15 8 14
22 14 30 1z m2475 -3 c0 -21 -12 -28 -27 -16 -19 16 -16 29 7 29 11 0 20 -6
20 -13z m410 -18 c0 -5 -4 -9 -10 -9 -5 0 -10 7 -10 16 0 8 5 12 10 9 6 -3 10
-10 10 -16z m-400 -79 c11 -22 18 -40 15 -40 -2 0 -14 18 -25 40 -11 22 -18
40 -15 40 2 0 14 -18 25 -40z m118 15 c0 -14 -4 -25 -8 -25 -13 0 -32 29 -25
40 12 19 33 10 33 -15z m-2782 7 c9 -5 3 -23 -17 -62 -15 -30 -28 -51 -29 -47
0 4 7 22 16 39 12 24 13 32 3 38 -6 5 -9 15 -6 24 7 17 16 20 33 8z m-71 -32
c-9 -16 -18 -30 -21 -30 -2 0 2 14 11 30 9 17 18 30 21 30 2 0 -2 -13 -11 -30z
m-97 8 c-6 -18 -28 -21 -28 -4 0 9 7 16 16 16 9 0 14 -5 12 -12z m2902 -38 c0
-5 -4 -10 -10 -10 -5 0 -10 5 -10 10 0 6 5 10 10 10 6 0 10 -4 10 -10z m-2645
-25 c0 -23 -34 -33 -45 -14 -13 20 1 40 24 37 13 -2 21 -10 21 -23z m-440 -4
c3 -5 1 -12 -5 -16 -5 -3 -10 1 -10 9 0 18 6 21 15 7z m238 -16 c-3 -9 -8 -14
-10 -11 -3 3 -2 9 2 15 9 16 15 13 8 -4z m49 -18 c3 -18 0 -23 -14 -22 -26 2
-32 12 -17 29 19 21 26 20 31 -7z m2928 -2 c0 -26 -7 -30 -28 -17 -16 10 -5
42 14 42 8 0 14 -10 14 -25z m140 -1 c0 -16 -16 -19 -25 -4 -8 13 4 32 16 25
5 -4 9 -13 9 -21z m-3079 -61 c-12 -20 -14 -14 -5 12 4 9 9 14 11 11 3 -2 0
-13 -6 -23z m1007 -45 c17 -40 56 -138 87 -218 32 -80 112 -284 179 -455 68
-170 126 -318 129 -328 8 -21 26 -19 41 5 7 12 3 33 -16 80 -15 34 -47 117
-73 183 -142 362 -222 563 -266 673 -27 68 -49 126 -49 128 0 2 10 4 23 4 19
0 28 -10 45 -52 18 -46 228 -575 329 -833 46 -117 44 -115 59 -72 13 36 11 44
-36 160 -27 67 -101 255 -165 417 -63 162 -122 310 -130 328 -20 45 -19 54 8
50 19 -3 43 -55 186 -415 90 -227 168 -410 172 -407 5 2 11 19 14 37 5 24 -4
59 -35 137 -23 58 -71 179 -106 270 -36 91 -72 181 -81 200 -24 54 -63 161
-63 172 0 5 10 8 22 6 18 -2 28 -17 46 -63 12 -33 31 -80 42 -105 38 -90 190
-481 190 -491 0 -5 4 -9 9 -9 5 0 17 35 26 78 49 235 72 299 132 363 47 50
103 80 103 54 0 -8 -8 -20 -18 -27 -44 -31 -72 -108 -122 -333 -18 -77 -40
-167 -50 -200 -10 -33 -22 -76 -26 -95 -17 -84 -66 -189 -108 -232 -56 -55
-96 -88 -110 -88 -6 0 -44 84 -85 188 -40 103 -84 212 -96 242 -21 49 -91 227
-215 544 -27 68 -46 103 -50 95 -8 -15 -106 -261 -285 -714 -58 -148 -114
-289 -123 -312 -13 -33 -22 -43 -39 -43 -13 0 -23 4 -23 9 0 4 29 80 63 167
35 87 101 254 146 369 45 116 91 230 101 255 16 37 98 244 131 328 6 14 17 22
33 22 21 0 29 -11 54 -72z m1612 37 c0 -5 -5 -3 -10 5 -5 8 -10 20 -10 25 0 6
5 3 10 -5 5 -8 10 -19 10 -25z m-2699 -2 c-12 -20 -14 -14 -5 12 4 9 9 14 11
11 3 -2 0 -13 -6 -23z m3063 -41 c2 -4 0 -14 -5 -22 -8 -13 -10 -13 -19 0 -5
8 -10 18 -10 23 0 10 28 9 34 -1z m-3009 -19 c-3 -8 -5 -19 -5 -24 0 -10 -33
-12 -43 -2 -9 8 24 40 41 40 7 0 10 -7 7 -14z m55 -3 c0 -5 -4 -10 -10 -10 -5
0 -10 5 -10 10 0 6 5 10 10 10 6 0 10 -4 10 -10z m2837 -82 c-3 -8 -6 -5 -6 6
-1 11 2 17 5 13 3 -3 4 -12 1 -19z m-3087 -3 c0 -8 -4 -15 -10 -15 -5 0 -10 7
-10 15 0 8 5 15 10 15 6 0 10 -7 10 -15z m76 -42 c-10 -10 -19 5 -10 18 6 11
8 11 12 0 2 -7 1 -15 -2 -18z m81 5 c-3 -8 -6 -5 -6 6 -1 11 2 17 5 13 3 -3 4
-12 1 -19z m1043 -26 c0 -12 -47 -140 -104 -285 -57 -144 -135 -341 -173 -437
-64 -161 -71 -175 -96 -178 l-26 -3 39 98 c149 381 313 794 326 822 12 27 17
32 25 20 5 -8 9 -24 9 -37z m1897 26 c-3 -8 -6 -5 -6 6 -1 11 2 17 5 13 3 -3
4 -12 1 -19z m-2950 -50 c-3 -7 -5 -2 -5 12 0 14 2 19 5 13 2 -7 2 -19 0 -25z
m63 12 c0 -11 -4 -20 -9 -20 -11 0 -22 26 -14 34 12 12 23 5 23 -14z m2917 -8
c23 4 25 -29 2 -35 -11 -3 -19 0 -19 6 0 7 -2 21 -4 32 -2 11 -1 14 1 7 3 -7
12 -11 20 -10z m-210 -14 c-3 -8 -6 -5 -6 6 -1 11 2 17 5 13 3 -3 4 -12 1 -19z
m-2860 -20 c-3 -8 -6 -5 -6 6 -1 11 2 17 5 13 3 -3 4 -12 1 -19z m80 -20 c-3
-7 -5 -2 -5 12 0 14 2 19 5 13 2 -7 2 -19 0 -25z m2790 -10 c-3 -8 -6 -5 -6 6
-1 11 2 17 5 13 3 -3 4 -12 1 -19z m-2880 -20 c-3 -8 -6 -5 -6 6 -1 11 2 17 5
13 3 -3 4 -12 1 -19z m1207 -13 c4 -17 -3 -50 -23 -98 -29 -70 -171 -432 -233
-592 -37 -94 -39 -98 -67 -93 -20 3 -19 5 14 88 89 224 249 631 267 678 20 55
32 59 42 17z m1873 3 c-3 -7 -5 -2 -5 12 0 14 2 19 5 13 2 -7 2 -19 0 -25z
m-3000 -10 c-3 -7 -5 -2 -5 12 0 14 2 19 5 13 2 -7 2 -19 0 -25z m2810 -10
c-3 -8 -6 -5 -6 6 -1 11 2 17 5 13 3 -3 4 -12 1 -19z m273 12 c0 -5 -7 -10
-15 -10 -8 0 -15 5 -15 10 0 6 7 10 15 10 8 0 15 -4 15 -10z m-3173 -47 c-3
-10 -5 -4 -5 12 0 17 2 24 5 18 2 -7 2 -21 0 -30z m3100 -10 c-3 -10 -5 -4 -5
12 0 17 2 24 5 18 2 -7 2 -21 0 -30z m-3020 -25 c-2 -13 -4 -5 -4 17 -1 22 1
32 4 23 2 -10 2 -28 0 -40z m2830 -5 c-3 -10 -5 -4 -5 12 0 17 2 24 5 18 2 -7
2 -21 0 -30z m-2793 -14 c-6 -11 -24 -2 -24 11 0 5 7 7 15 4 8 -4 12 -10 9
-15z m2966 6 c0 -8 -6 -15 -14 -15 -17 0 -28 14 -19 24 12 12 33 6 33 -9z
m-3093 -32 c-3 -10 -5 -4 -5 12 0 17 2 24 5 18 2 -7 2 -21 0 -30z m3120 -70
c-2 -21 -4 -4 -4 37 0 41 2 58 4 38 2 -21 2 -55 0 -75z m-1842 65 c5 -26 -12
-77 -80 -248 -171 -433 -156 -400 -182 -400 -13 0 -23 1 -23 3 0 1 23 61 51
132 28 72 61 157 74 190 13 33 38 96 55 140 17 44 43 110 57 148 14 37 29 67
34 67 4 0 11 -15 14 -32z m729 4 c3 -5 -5 -8 -17 -8 -35 1 -26 -26 17 -48 51
-27 63 -47 50 -83 -21 -61 -101 -69 -133 -12 -16 28 -8 79 11 79 9 0 9 -3 0
-12 -18 -18 -14 -49 10 -75 28 -30 59 -29 87 1 34 36 25 67 -26 91 -23 10 -45
26 -48 33 -10 27 34 57 49 34z m-1927 -184 c-2 -35 -3 -7 -3 62 0 69 1 97 3
63 2 -35 2 -91 0 -125z m2180 40 c-2 -29 -3 -8 -3 47 0 55 1 79 3 53 2 -26 2
-71 0 -100z m670 -50 c-2 -35 -3 -9 -3 57 0 66 1 94 3 63 2 -32 2 -86 0 -120z
m-2757 126 c0 -8 -9 -14 -19 -14 -14 0 -18 5 -14 19 6 22 33 17 33 -5z m2012
6 c14 -10 28 -16 32 -13 3 3 6 -4 6 -18 l0 -23 -16 22 c-33 48 -89 47 -112 -2
-8 -16 -11 -17 -11 -4 -1 18 44 58 64 58 7 0 24 -9 37 -20z m208 10 c11 -6 24
-20 30 -33 9 -19 9 -20 -2 -6 -25 30 -56 41 -80 28 -46 -24 -51 -67 -13 -104
30 -31 20 -33 -12 -3 -33 30 -31 80 3 107 30 23 46 26 74 11z m70 -92 c-7 -51
-8 -50 -8 27 0 56 2 72 8 53 4 -15 4 -51 0 -80z m110 84 c17 -14 23 -31 26
-73 l3 -54 -7 46 c-12 72 -47 102 -94 79 -22 -11 -22 -10 -4 4 26 21 49 20 76
-2z m620 -22 c0 -5 -5 -12 -11 -16 -12 -7 -31 15 -23 28 6 9 34 -1 34 -12z
m124 -11 c-3 -5 -10 -7 -15 -3 -5 3 -7 10 -3 15 3 5 10 7 15 3 5 -3 7 -10 3
-15z m94 -7 c2 -7 -3 -12 -12 -12 -9 0 -16 7 -16 16 0 17 22 14 28 -4z m-3416
-27 c-2 -14 -6 -25 -8 -25 -2 0 -4 11 -4 25 0 14 4 25 9 25 4 0 6 -11 3 -25z
m2130 -49 c12 -9 17 -16 10 -16 -18 0 -52 38 -51 58 0 13 2 13 9 -4 5 -12 19
-29 32 -38z m97 22 c0 -18 -3 -27 -6 -20 -4 10 -8 10 -21 0 -14 -11 -14 -9 1
8 9 11 17 26 17 32 0 7 2 12 5 12 3 0 5 -15 4 -32z m211 12 c0 -13 -37 -50
-49 -50 -6 0 2 13 17 29 32 34 32 34 32 21z m687 -97 c-2 -21 -4 -6 -4 32 0
39 2 55 4 38 2 -18 2 -50 0 -70z m143 33 c0 -2 -3 -11 -6 -20 -9 -23 -34 -20
-34 4 0 13 7 20 20 20 11 0 20 -2 20 -4z m-3205 -34 c-2 -9 -4 -19 -4 -21 -1
-2 -8 2 -16 9 -12 10 -13 16 -4 26 14 17 28 9 24 -14z m2025 6 c-1 -48 -73
-138 -109 -138 -6 0 -11 -4 -11 -9 0 -19 20 -21 51 -6 38 20 49 12 23 -16 -30
-35 -101 -62 -140 -54 -38 7 -41 0 -18 -33 16 -23 64 -138 64 -154 0 -4 -9 -8
-20 -8 -23 0 -35 21 -80 142 -26 69 -31 95 -25 125 7 37 7 37 19 14 13 -23 13
-23 35 22 25 53 78 92 147 111 65 18 64 18 64 4z m1110 -8 c0 -5 -4 -10 -10
-10 -5 0 -10 5 -10 10 0 6 5 10 10 10 6 0 10 -4 10 -10z m-965 -20 c-26 -28
-12 -36 22 -12 28 20 46 26 70 23 18 -2 43 -55 43 -94 0 -50 -38 -153 -74
-200 -37 -49 -128 -107 -168 -107 -38 0 -27 24 20 45 63 27 66 31 89 76 33 67
46 136 32 176 -6 18 -14 33 -19 33 -19 0 -48 -38 -59 -78 -9 -31 -21 -49 -44
-62 -44 -27 -61 -26 -53 3 4 12 12 49 18 82 9 48 18 67 48 98 26 25 47 37 65
37 27 0 28 0 10 -20z m-2228 -27 c-3 -10 -5 -4 -5 12 0 17 2 24 5 18 2 -7 2
-21 0 -30z m1401 2 l12 -25 -100 0 c-55 0 -100 4 -100 9 0 36 12 41 94 41 79
0 83 -1 94 -25z m-1311 -32 c-3 -10 -5 -2 -5 17 0 19 2 27 5 18 2 -10 2 -26 0
-35z m2830 -10 c-3 -10 -5 -2 -5 17 0 19 2 27 5 18 2 -10 2 -26 0 -35z m190
-10 c-3 -10 -5 -2 -5 17 0 19 2 27 5 18 2 -10 2 -26 0 -35z m417 22 c3 -8 1
-15 -4 -15 -6 0 -10 7 -10 15 0 8 2 15 4 15 2 0 6 -7 10 -15z m-3602 -27 c-15
-15 -26 -4 -18 18 5 13 9 15 18 6 9 -9 9 -15 0 -24z m85 -30 c-3 -7 -5 -2 -5
12 0 14 2 19 5 13 2 -7 2 -19 0 -25z m58 7 c0 -10 -6 -20 -12 -22 -8 -3 -13 5
-13 22 0 17 5 25 13 23 6 -3 12 -13 12 -23z m3195 7 c0 -4 -5 -14 -10 -22 -9
-13 -11 -13 -19 0 -6 9 -6 19 1 27 10 12 28 9 28 -5z m-3163 -34 c-3 -7 -5 -2
-5 12 0 14 2 19 5 13 2 -7 2 -19 0 -25z m1341 7 l12 -25 -140 0 c-78 0 -140 4
-140 9 0 38 10 41 134 41 121 0 123 0 134 -25z m1469 -7 c-3 -8 -6 -5 -6 6 -1
11 2 17 5 13 3 -3 4 -12 1 -19z m190 -10 c-3 -7 -5 -2 -5 12 0 14 2 19 5 13 2
-7 2 -19 0 -25z m-3080 -20 c-3 -8 -6 -5 -6 6 -1 11 2 17 5 13 3 -3 4 -12 1
-19z m90 -20 c-3 -8 -6 -5 -6 6 -1 11 2 17 5 13 3 -3 4 -12 1 -19z m2790 -10
c-3 -7 -5 -2 -5 12 0 14 2 19 5 13 2 -7 2 -19 0 -25z m483 18 c0 -8 -4 -17 -9
-21 -12 -7 -24 12 -16 25 9 15 25 12 25 -4z m-3353 -38 c-3 -8 -6 -5 -6 6 -1
11 2 17 5 13 3 -3 4 -12 1 -19z m133 2 c0 -5 -4 -10 -10 -10 -5 0 -10 5 -10
10 0 6 5 10 10 10 6 0 10 -4 10 -10z m1314 -6 c3 -9 6 -20 6 -25 0 -5 -75 -9
-175 -9 -100 0 -175 4 -175 9 0 39 8 41 175 41 139 0 164 -2 169 -16z m-1346
-54 c0 -8 -2 -10 -4 -4 -3 6 -16 9 -29 6 -31 -6 -32 11 -3 40 l22 22 7 -24 c4
-14 7 -32 7 -40z m2759 38 c-3 -8 -6 -5 -6 6 -1 11 2 17 5 13 3 -3 4 -12 1
-19z m343 -4 c0 -8 -7 -14 -15 -14 -17 0 -18 2 -9 24 7 18 24 12 24 -10z
m-3410 6 c0 -5 -4 -10 -9 -10 -6 0 -13 5 -16 10 -3 6 1 10 9 10 9 0 16 -4 16
-10z m3257 -12 c-3 -8 -6 -5 -6 6 -1 11 2 17 5 13 3 -3 4 -12 1 -19z m-1279
-43 c5 -16 17 -47 26 -67 16 -38 16 -38 -7 -38 -33 0 -62 64 -53 116 8 39 17
36 34 -11z m1079 13 c-3 -8 -6 -5 -6 6 -1 11 2 17 5 13 3 -3 4 -12 1 -19z
m187 -22 c-3 -15 -8 -25 -11 -23 -2 3 -1 17 3 31 3 15 8 25 11 23 2 -3 1 -17
-3 -31z m-3017 2 c-3 -8 -6 -5 -6 6 -1 11 2 17 5 13 3 -3 4 -12 1 -19z m129
-135 c-5 -5 -36 86 -35 101 0 6 9 -13 20 -43 10 -30 17 -56 15 -58z m2890 77
c17 0 18 -9 3 -30 -8 -11 -12 -12 -16 -2 -2 6 -10 9 -16 5 -7 -4 -8 0 -4 11 4
10 7 23 8 29 0 8 2 8 6 0 2 -7 11 -13 19 -13z m-2853 -5 c4 -8 3 -16 -1 -19
-13 -8 -35 11 -28 23 10 15 23 14 29 -4z m1511 -11 c9 -23 8 -24 -12 -24 -26
0 -34 11 -21 27 15 17 26 17 33 -3z m-1635 -47 c1 -5 -6 -1 -15 7 -8 9 -12 21
-8 28 5 8 10 6 15 -8 4 -10 8 -23 8 -27z m-89 -4 c0 -13 -3 -13 -15 -3 -8 7
-12 16 -9 21 8 13 24 1 24 -18z m119 -68 c0 -5 -6 1 -14 15 -8 14 -14 30 -14
35 0 6 6 -1 14 -15 8 -14 14 -29 14 -35z m81 10 c0 -5 -5 -3 -10 5 -5 8 -10
20 -10 25 0 6 5 3 10 -5 5 -8 10 -19 10 -25z m2601 -12 c-12 -20 -14 -14 -5
12 4 9 9 14 11 11 3 -2 0 -13 -6 -23z m-2551 -75 c0 14 30 17 30 2 0 -5 -7
-10 -15 -10 -19 0 -19 -3 5 -50 11 -22 18 -40 15 -40 -6 0 -85 156 -85 167 1
5 12 -12 25 -37 13 -25 24 -39 25 -32z m2705 62 c11 -18 -5 -31 -21 -16 -8 8
-14 17 -14 20 0 10 28 7 35 -4z m-2801 -57 c9 -18 14 -33 12 -33 -6 0 -36 55
-36 66 0 11 5 3 24 -33z m2576 -73 c-6 -11 -13 -20 -16 -20 -2 0 0 9 6 20 6
11 13 20 16 20 2 0 0 -9 -6 -20z m-2499 -65 l10 -20 -16 20 c-9 11 -21 29 -26
40 l-10 20 16 -20 c9 -11 21 -29 26 -40z m2469 15 c-6 -11 -13 -20 -16 -20 -2
0 0 9 6 20 6 11 13 20 16 20 2 0 0 -9 -6 -20z m-2356 -60 c25 -38 44 -70 41
-70 -2 0 -22 26 -43 58 -47 70 -54 82 -49 82 2 0 25 -31 51 -70z m2529 19
c-10 -17 -24 -36 -32 -42 -8 -7 -2 7 14 31 32 49 45 57 18 11z m207 -9 c0 -5
-4 -10 -10 -10 -5 0 -10 5 -10 10 0 6 5 10 10 10 6 0 10 -4 10 -10z m-452 -57
c-86 -122 -332 -338 -458 -403 -40 -20 -22 -7 95 71 116 77 268 219 344 322
52 69 66 76 19 10z m-2347 20 c13 -16 12 -17 -3 -4 -10 7 -18 15 -18 17 0 8 8
3 21 -13z m2869 -18 c0 -8 -4 -15 -9 -15 -13 0 -22 16 -14 24 11 11 23 6 23
-9z m-340 -25 c-11 -16 -26 -33 -32 -36 -7 -4 1 9 16 29 34 44 46 50 16 7z
m83 16 c4 -10 1 -13 -9 -9 -15 6 -19 23 -5 23 5 0 11 -7 14 -14z m-2582 -13
c13 -16 12 -17 -3 -4 -10 7 -18 15 -18 17 0 8 8 3 21 -13z m52 -17 c3 -7 2
-17 -3 -22 -12 -13 33 -62 61 -66 17 -2 24 -10 24 -24 1 -12 7 -30 15 -40 40
-50 -40 26 -87 82 -38 45 -49 64 -40 73 15 15 24 14 30 -3z m231 -215 c-2 -2
-10 2 -19 9 -12 10 -15 9 -15 -6 0 -11 14 -32 32 -47 30 -26 29 -26 -14 3 -26
18 -57 44 -70 59 -13 14 -16 20 -6 13 11 -9 18 -10 23 -2 3 6 12 7 18 3 7 -4
-19 29 -58 72 -109 126 -108 128 6 10 59 -60 105 -112 103 -114z m-289 61 c0
-18 -20 -15 -23 4 -3 10 1 15 10 12 7 -3 13 -10 13 -16z m2821 -69 c-10 -10
-19 5 -10 18 6 11 8 11 12 0 2 -7 1 -15 -2 -18z m-2266 -13 c0 -13 -28 -25
-38 -16 -3 4 0 11 8 16 20 13 30 12 30 0z m2080 2 c0 -13 -12 -22 -22 -16 -10
6 -1 24 13 24 5 0 9 -4 9 -8z m-532 -49 c-2 -10 -7 -18 -12 -18 -5 0 -10 8
-12 18 -1 9 4 17 13 17 8 0 13 -7 11 -17z m-1728 -40 c0 -7 -39 17 -46 28 -3
6 5 3 20 -6 14 -10 26 -19 26 -22z m-70 -13 c0 -5 -4 -10 -10 -10 -5 0 -10 5
-10 10 0 6 5 10 10 10 6 0 10 -4 10 -10z m-310 -10 c0 -5 -4 -10 -10 -10 -5 0
-10 5 -10 10 0 6 5 10 10 10 6 0 10 -4 10 -10z m1826 -45 c-11 -8 -25 -15 -30
-15 -6 1 0 7 14 15 32 19 40 18 16 0z m-1576 -10 c0 -9 -6 -12 -15 -9 -8 4
-15 10 -15 15 0 5 7 9 15 9 8 0 15 -7 15 -15z m1798 -9 c-8 -19 -18 -24 -39
-23 -15 1 -25 5 -21 9 6 6 64 38 69 38 2 0 -2 -11 -9 -24z m-308 -21 c-14 -8
-29 -14 -35 -14 -5 0 1 6 15 14 14 8 30 14 35 14 6 0 -1 -6 -15 -14z m216 -20
c-11 -8 -26 -15 -33 -15 -7 0 -17 -10 -24 -21 -9 -17 -13 -19 -20 -8 -6 10 3
20 34 36 48 25 71 29 43 8z m-626 -47 c0 -5 -9 -8 -20 -8 -18 0 -19 3 -9 21 9
17 13 19 20 8 5 -8 9 -17 9 -21z m366 -3 c4 -8 1 -22 -6 -30 -7 -8 -9 -15 -5
-15 5 0 6 -3 2 -6 -8 -9 -37 21 -37 39 0 29 36 38 46 12z m-149 -1 c-3 -3 -12
-4 -19 -1 -8 3 -5 6 6 6 11 1 17 -2 13 -5z m-140 -30 c-3 -3 -12 -4 -19 -1 -8
3 -5 6 6 6 11 1 17 -2 13 -5z m-74 -11 c-7 -2 -21 -2 -30 0 -10 3 -4 5 12 5
17 0 24 -2 18 -5z m394 1 c-3 -3 -12 -4 -19 -1 -8 3 -5 6 6 6 11 1 17 -2 13
-5z m-80 -20 c-3 -3 -12 -4 -19 -1 -8 3 -5 6 6 6 11 1 17 -2 13 -5z m733 3 c0
-1 -4 -18 -10 -37 -8 -30 -7 -33 4 -17 26 33 58 17 71 -36 10 -36 29 -34 61 8
14 19 31 35 36 35 14 0 -23 -59 -51 -81 -28 -23 -46 -13 -68 39 -7 17 -17 32
-23 32 -5 0 -23 -29 -40 -65 -17 -36 -34 -65 -37 -65 -3 0 -3 21 1 46 5 41 4
45 -12 39 -9 -4 -26 -10 -37 -13 -11 -3 -26 -12 -33 -19 -19 -19 -50 -16 -62
6 -18 34 -11 61 22 91 37 34 54 27 64 -25 4 -26 10 -32 22 -28 27 10 62 45 62
63 0 18 9 30 22 30 4 0 8 -1 8 -3z m-897 -34 c-7 -2 -21 -2 -30 0 -10 3 -4 5
12 5 17 0 24 -2 18 -5z m-95 -80 c-10 -2 -26 -2 -35 0 -10 3 -2 5 17 5 19 0
27 -2 18 -5z m-218 -33 c0 -5 -4 -10 -10 -10 -5 0 -10 5 -10 10 0 6 5 10 10
10 6 0 10 -4 10 -10z m-10 -79 c0 -12 -28 -22 -34 -12 -3 5 -3 11 1 15 9 9 33
7 33 -3z m810 -40 c0 -6 -4 -13 -10 -16 -5 -3 -10 1 -10 9 0 9 5 16 10 16 6 0
10 -4 10 -9z m-1055 -51 c3 -5 -1 -10 -9 -10 -9 0 -16 5 -16 10 0 6 4 10 9 10
6 0 13 -4 16 -10z"/>
<path d="M1777 1425 c-20 -35 -37 -66 -37 -68 0 -3 12 -12 26 -21 18 -13 25
-14 23 -4 -1 7 3 25 9 39 11 28 27 119 20 119 -2 0 -20 -29 -41 -65z"/>
<path d="M1507 1469 c7 -9 38 -36 68 -60 30 -24 50 -46 44 -50 -7 -4 -6 -8 3
-12 8 -3 15 1 15 8 0 12 -61 69 -122 115 -18 14 -19 13 -8 -1z"/>
<path d="M2081 1409 c-6 -18 -9 -34 -7 -36 2 -2 9 10 15 28 6 18 9 34 7 36 -2
2 -9 -10 -15 -28z"/>
<path d="M2006 1415 c-9 -26 -7 -32 5 -12 6 10 9 21 6 23 -2 3 -7 -2 -11 -11z"/>
<path d="M1667 1215 c-20 -42 -37 -80 -37 -85 0 -6 25 -10 55 -10 l54 0 10 38
c24 89 24 99 0 116 -13 9 -28 16 -34 16 -6 0 -27 -34 -48 -75z"/>
<path d="M3190 1226 c-81 -43 -92 -51 -71 -56 14 -3 26 -11 29 -18 3 -9 -3
-11 -22 -6 -21 5 -28 1 -46 -28 -11 -18 -20 -42 -20 -53 1 -16 6 -13 31 18 17
20 34 37 39 37 4 0 11 -21 15 -46 11 -76 45 -70 86 14 18 38 62 186 56 187 -1
1 -45 -22 -97 -49z m40 -46 c0 -5 -4 -10 -10 -10 -5 0 -10 5 -10 10 0 6 5 10
10 10 6 0 10 -4 10 -10z"/>
<path d="M2128 1173 c7 -3 16 -2 19 1 4 3 -2 6 -13 5 -11 0 -14 -3 -6 -6z"/>
<path d="M2280 1155 c0 -8 7 -15 15 -15 9 0 12 6 9 15 -4 8 -10 15 -15 15 -5
0 -9 -7 -9 -15z"/>
<path d="M3015 1152 c-22 -9 -44 -22 -48 -29 -4 -7 -26 -12 -50 -12 -23 1 -52
-3 -65 -8 -22 -8 -21 -10 23 -41 l46 -32 73 52 c112 80 120 110 21 70z"/>
<path d="M2038 1142 c11 -12 19 -14 24 -8 4 6 0 14 -10 18 -29 11 -33 9 -14
-10z"/>
<path d="M2075 1110 c-33 -65 -10 -75 27 -12 16 26 16 31 3 36 -10 3 -20 -5
-30 -24z"/>
<path d="M2468 1113 c12 -2 30 -2 40 0 9 3 -1 5 -23 4 -22 0 -30 -2 -17 -4z"/>
<path d="M2145 1068 c9 -42 13 -48 30 -48 19 0 61 60 43 61 -7 0 -4 4 7 9 14
6 15 9 5 9 -9 1 -21 -4 -28 -11 -9 -9 -15 -9 -24 0 -24 24 -40 14 -33 -20z"/>
<path d="M2350 1071 c0 -6 4 -12 9 -15 13 -8 42 4 35 15 -7 12 -44 12 -44 0z"/>
<path d="M2860 954 c-65 -51 -164 -151 -184 -185 -15 -25 -15 -30 -3 -35 34
-13 150 69 192 136 23 36 50 108 43 115 -2 2 -24 -12 -48 -31z"/>
<path d="M2802 2508 c-7 -7 -12 -21 -12 -32 1 -18 3 -17 16 7 17 31 15 44 -4
25z"/>
<path d="M3370 1113 c0 -13 5 -23 10 -23 13 0 13 11 0 30 -8 12 -10 11 -10 -7z"/>
<path d="M3335 1087 c-9 -32 5 -53 29 -44 18 7 22 27 6 27 -6 0 -15 10 -19 23
-9 22 -9 21 -16 -6z"/>
</g>
</svg>
